<?xml version="1.0" encoding="UTF-8"?>
<!DOCTYPE svg PUBLIC "-//W3C//DTD SVG 1.1//EN" "http://www.w3.org/Graphics/SVG/1.1/DTD/svg11.dtd">
<!-- Creator: CorelDRAW 2019 (64-Bit) -->
<svg xmlns="http://www.w3.org/2000/svg" xml:space="preserve" width="9.99999in" height="9.99999in" version="1.1" style="shape-rendering:geometricPrecision; text-rendering:geometricPrecision; image-rendering:optimizeQuality; fill-rule:evenodd; clip-rule:evenodd"
viewBox="0 0 9999.99 9999.99"
 xmlns:xlink="http://www.w3.org/1999/xlink"
 xmlns:xodm="http://www.corel.com/coreldraw/odm/2003">
 <defs>
  <style type="text/css">
   <![CDATA[
    .fil0 {fill:none}
    .fil1 {fill:#005FBF;fill-rule:nonzero}
   ]]>
  </style>
 </defs>
 <g id="Capa_x0020_1">
  <metadata id="CorelCorpID_0Corel-Layer"/>
  <rect class="fil0" x="-0.01" y="-0.01" width="10000" height="10000"/>
  <path class="fil1" d="M3254.5 8356.08l2052.86 0c156.84,0 292.93,55.36 408.26,166.07 115.32,110.72 173,244.5 173,401.34 0,156.85 -57.67,290.63 -173,401.35 -115.33,110.72 -251.42,166.07 -408.26,166.07l-2124.36 0c-272.18,0 -551.28,-85.34 -839.6,-256.04 -288.32,-170.69 -489,-362.13 -602.02,-574.33l-1305.53 -2534.94c-175.3,-364.44 -262.95,-738.11 -262.95,-1121 0,-424.41 83.04,-791.16 249.11,-1102.54l1319.37 -2507.26c126.86,-235.27 322.92,-440.56 588.18,-618.16 267.56,-177.61 523.6,-267.56 772.7,-267.56l2246.62 0c156.84,0 290.63,55.36 401.34,168.38 110.72,113.02 166.07,246.8 166.07,399.04 0,156.84 -55.36,292.94 -166.07,408.26 -110.72,115.33 -246.8,173 -403.66,173l-2175.11 0c-179.91,-4.62 -327.54,99.18 -438.24,313.69l-1247.86 2357.33c-96.88,184.52 -147.63,403.65 -149.93,652.76 6.92,262.95 64.58,498.22 170.69,701.2l1194.81 2315.81c110.72,239.89 295.24,357.52 553.58,357.52zm1754.15 -5358.19l2419.6 -2089.76c325.23,-265.26 657.38,-399.04 1001.06,-399.04 378.28,0 705.82,138.4 982.6,412.88 276.8,274.48 415.19,569.72 415.19,883.42l0 3473.71c0,657.38 -281.41,1224.8 -844.21,1702.26l-756.56 638.92 283.72 735.8 756.56 0c154.54,0 288.32,55.36 396.73,166.07 108.41,110.72 163.77,244.5 163.77,401.34 0,156.85 -55.36,290.63 -163.77,401.35 -110.72,110.72 -244.5,166.07 -399.04,166.07l-1545.41 0 -419.8 -1084.1 -772.7 652.76c-339.07,288.33 -682.75,431.33 -1031.04,431.33 -396.74,0 -728.88,-136.09 -996.44,-408.26 -267.57,-272.18 -401.35,-602.02 -401.35,-989.52l0 -3169.24c0,-394.43 59.98,-735.8 182.22,-1021.82 122.25,-286.02 364.44,-588.18 728.88,-904.18zm3164.63 -1259.4l-2417.3 2087.46c-209.9,184.52 -350.6,359.82 -419.8,528.2 -69.2,166.07 -103.8,401.35 -103.8,708.12l0 2957.04c0,232.96 89.96,350.6 269.87,350.6 71.5,2.3 143.01,-25.37 209.9,-85.34l1153.29 -989.52 -373.67 -982.6c-55.36,-129.17 -83.04,-242.2 -83.04,-336.76 0,-138.4 55.36,-262.96 168.38,-373.67 110.72,-110.71 244.5,-166.07 396.74,-166.07 262.94,-11.54 440.55,92.26 525.9,311.39l297.55 770.4c318.31,-267.56 546.66,-484.38 680.44,-652.76 133.78,-168.38 200.67,-366.74 200.67,-595.1l0 -3328.4c0,-189.14 -87.65,-283.7 -260.64,-283.7 -94.57,-4.62 -177.61,23.06 -244.5,80.72z"/>
 </g>
</svg>
